<svg width="217" height="207" viewBox="0 0 217 207" xmlns="http://www.w3.org/2000/svg"><title>soon_o</title><defs><filter x="-50%" y="-50%" width="200%" height="200%" filterUnits="objectBoundingBox" id="a"><feOffset in="SourceAlpha" result="shadowOffsetOuter1"/><feGaussianBlur stdDeviation="15" in="shadowOffsetOuter1" result="shadowBlurOuter1"/><feColorMatrix values="0 0 0 0 0.0823529412 0 0 0 0 0.0823529412 0 0 0 0 0.0823529412 0 0 0 0.14 0" in="shadowBlurOuter1" result="shadowMatrixOuter1"/><feMerge><feMergeNode in="shadowMatrixOuter1"/><feMergeNode in="SourceGraphic"/></feMerge></filter></defs><path d="M345.404 462C298.316 462 263 494.918 263 539.39c0 44.69 35.316 78.262 82.404 78.262 47.306 0 82.622-33.79 82.622-78.262 0-44.254-35.316-77.39-82.622-77.39zm.436 32.482c23.544 0 42.292 19.402 42.292 45.126 0 25.724-18.748 45.562-42.292 45.562-23.326 0-43.164-19.838-43.164-45.562 0-25.724 19.62-45.126 43.164-45.126z" transform="translate(-237 -436)" filter="url(#a)" fill="#FFF" fill-rule="evenodd"/></svg>