<svg width="1920" height="639" viewBox="0 0 1920 639" xmlns="http://www.w3.org/2000/svg" xmlns:xlink="http://www.w3.org/1999/xlink"><title>project-1-bg</title><defs><path id="a" d="M0 0h1920v639H0z"/></defs><g fill="none" fill-rule="evenodd"><mask id="b" fill="#fff"><use xlink:href="#a"/></mask><use xlink:href="#a"/><path d="M-154.007 468.706S158.058-1 357.358-1s247.774 251.807 341.058 250.177c95.36-1.665 218.864-228.276 341.028-244.69 214.615-28.84 385.71 491.45 592.05 464.144 323.737-42.838 300.416-109.516 345.028-156.908 80.724-85.756 16.33 325.99 16.33 325.99h-2140.66l-6.2-169.006z" opacity=".2" fill="#00C6CA" mask="url(#b)"/><path d="M-206 362.337s228.445-343.5 405.993-343.5c136.872 0 289.372 335.813 402.074 337.956 89.36 1.7-11.794-407.534 279.205-330.025 389.35 103.705 374.28 509.083 607.87 466.086 261.928-48.212 257.703-194.255 504.107-53.695 118.658 67.686 0 200.83 0 200.83H-188.44L-206 362.337z" opacity=".2" fill="#7792C5" mask="url(#b)"/><path d="M-46 487.174s476.45-238.557 720.026-271.068c83.17-11.172 157.498-7.632 254.07 119.622 33.258 43.822 91.864 103.776 174.382 115.23 82.518 11.455 142.732 37.707 199.695 131.694 56.962 93.986 0 64.75 0 64.75H-39.437L-46 487.173z" opacity=".2" fill="#FFF" mask="url(#b)"/></g></svg>