<svg width="1919" height="582" viewBox="0 0 1919 582" xmlns="http://www.w3.org/2000/svg" xmlns:xlink="http://www.w3.org/1999/xlink"><title>rex-pro-bg</title><defs><path id="a" d="M0 0h1920v582H0z"/><linearGradient x1="50%" y1="0%" x2="50%" y2="100%" id="b"><stop stop-color="#C4B198" offset="0%"/><stop stop-color="#F7EAC9" offset="100%"/></linearGradient></defs><g fill="none" fill-rule="evenodd"><mask id="c" fill="#fff"><use xlink:href="#a"/></mask><use xlink:href="#a"/><path d="M0 197L1919 0v582H.937L0 197z" fill="url(#b)" mask="url(#c)"/><path d="M48.344 543v-22.792H-7.6v-71.632h48.248v-22.792H-7.6V355.04h55.944v-22.792h-81.4V543h81.4zM178.88 332.248h-27.824l-30.784 169.608-30.488-169.608h-28.12L107.248 543h26.048l45.584-210.752zm118.104 105.376c0-52.688-.592-76.664-15.096-92.648-7.992-8.88-19.536-15.096-36.408-15.096s-28.12 6.216-36.112 15.096c-14.504 15.984-15.392 39.96-15.392 92.648 0 52.688.888 76.664 15.392 92.648 7.992 8.88 19.24 15.096 36.112 15.096 16.872 0 28.416-6.216 36.408-15.096 14.504-15.984 15.096-39.96 15.096-92.648zm-25.456 0c0 50.024-1.48 66.896-8.88 76.96-3.552 4.736-8.88 7.992-17.168 7.992-8.288 0-13.616-3.256-17.168-7.992-7.4-10.064-8.88-26.936-8.88-76.96 0-50.024 1.48-66.896 8.88-76.96 3.552-4.736 8.88-7.992 17.168-7.992 8.288 0 13.616 3.256 17.168 7.992 7.4 10.064 8.88 26.936 8.88 76.96zM411.24 543v-22.792h-55.944v-187.96H329.84V543h81.4zm124.912-210.752h-27.824l-30.784 169.608-30.488-169.608h-28.12L464.52 543h26.048l45.584-210.752zM637.68 543v-22.792h-55.944v-71.632h48.248v-22.792h-48.248V355.04h55.944v-22.792h-81.4V543h81.4zm171.384-210.752h-28.12l-23.68 89.984-23.68-89.984H705.76l38.776 125.504V543h25.456v-85.248l39.072-125.504zm117.512 105.376c0-52.688-.592-76.664-15.096-92.648-7.992-8.88-19.536-15.096-36.408-15.096s-28.12 6.216-36.112 15.096c-14.504 15.984-15.392 39.96-15.392 92.648 0 52.688.888 76.664 15.392 92.648 7.992 8.88 19.24 15.096 36.112 15.096 16.872 0 28.416-6.216 36.408-15.096 14.504-15.984 15.096-39.96 15.096-92.648zm-25.456 0c0 50.024-1.48 66.896-8.88 76.96-3.552 4.736-8.88 7.992-17.168 7.992-8.288 0-13.616-3.256-17.168-7.992-7.4-10.064-8.88-26.936-8.88-76.96 0-50.024 1.48-66.896 8.88-76.96 3.552-4.736 8.88-7.992 17.168-7.992 8.288 0 13.616 3.256 17.168 7.992 7.4 10.064 8.88 26.936 8.88 76.96zm153.92 57.424v-162.8h-25.456v164.28c0 16.576-10.656 26.048-23.384 26.048s-23.088-9.472-23.088-26.048v-164.28h-25.456v162.8c0 15.392 5.032 27.824 13.616 36.408 9.176 9.176 21.312 13.912 34.928 13.912 13.616 0 26.048-4.736 35.224-13.912 8.584-8.584 13.616-21.016 13.616-36.408zM1195.344 543l-32.264-95.608c18.352-8.584 25.456-25.752 25.456-55.056 0-46.176-17.76-60.088-49.728-60.088h-47.656V543h25.456v-90.576h23.088L1168.704 543h26.64zm-32.264-150.664c0 22.496-4.44 37.592-23.976 37.592h-22.496V355.04h22.496c19.536 0 23.976 15.096 23.976 37.296zm210.752 94.128c0-33.152-5.624-47.952-29.6-57.72l-23.68-9.768c-16.872-7.104-20.128-13.32-20.128-34.04 0-10.952 2.368-19.536 7.4-25.16 3.552-3.848 8.88-6.512 16.28-6.512 7.992 0 13.616 2.664 17.168 7.104 5.328 6.512 6.512 14.208 6.512 25.456h25.456c0-19.24-3.256-32.856-13.912-43.216-7.992-7.696-19.536-12.136-34.928-12.136-13.912 0-25.16 4.44-33.448 12.136-10.656 9.768-15.984 24.864-15.984 43.216 0 31.968 7.104 43.808 28.712 52.688l23.976 9.768c17.168 7.104 20.72 14.504 20.72 38.776 0 13.912-1.184 21.904-6.808 28.12-3.848 4.144-9.472 6.808-18.056 6.808-7.992 0-13.912-2.664-17.464-6.512-5.624-5.92-7.104-13.616-7.104-27.528h-25.456c0 22.496 3.256 34.632 13.024 44.4 8.288 8.288 20.72 12.728 37 12.728 16.872 0 29.304-5.032 37.296-12.728 10.064-10.064 13.024-23.976 13.024-45.88zm129.648-48.84c0-52.688-.592-76.664-15.096-92.648-7.992-8.88-19.536-15.096-36.408-15.096s-28.12 6.216-36.112 15.096c-14.504 15.984-15.392 39.96-15.392 92.648 0 52.688.888 76.664 15.392 92.648 7.992 8.88 19.24 15.096 36.112 15.096 16.872 0 28.416-6.216 36.408-15.096 14.504-15.984 15.096-39.96 15.096-92.648zm-25.456 0c0 50.024-1.48 66.896-8.88 76.96-3.552 4.736-8.88 7.992-17.168 7.992-8.288 0-13.616-3.256-17.168-7.992-7.4-10.064-8.88-26.936-8.88-76.96 0-50.024 1.48-66.896 8.88-76.96 3.552-4.736 8.88-7.992 17.168-7.992 8.288 0 13.616 3.256 17.168 7.992 7.4 10.064 8.88 26.936 8.88 76.96zm153.92 57.424v-162.8h-25.456v164.28c0 16.576-10.656 26.048-23.384 26.048s-23.088-9.472-23.088-26.048v-164.28h-25.456v162.8c0 15.392 5.032 27.824 13.616 36.408 9.176 9.176 21.312 13.912 34.928 13.912 13.616 0 26.048-4.736 35.224-13.912 8.584-8.584 13.616-21.016 13.616-36.408zM1771.064 543V332.248h-25.456l.296 144.152-54.168-144.152h-23.68V543h25.456V398.848L1747.976 543h23.088zM1909 437.624c0-51.8-.296-74.888-14.8-90.576-7.992-8.584-19.24-14.8-36.112-14.8h-48.84V543h48.84c16.872 0 28.12-6.216 36.112-14.8 14.504-15.688 14.8-38.776 14.8-90.576zm-25.456 0c0 48.248-.888 64.528-8.584 74.592-3.552 4.736-9.472 7.992-17.76 7.992h-22.496V355.04h22.496c8.288 0 14.208 3.256 17.76 7.992 7.696 10.064 8.584 26.344 8.584 74.592z" fill-opacity=".2" fill="#C4B198" mask="url(#c)"/></g></svg>